@startuml
class User {
    +id: int
    +username: String
    +password: String
    +email: String
    +image: String
    +fullname: String
    +reset_key: String
}

class Topic {
    +id: int
    +name: String
    +icon: String
    +description: String
}

class Question {
    +id: int
    +statement: String
    +topic_id: int
}

class Alternative{
    +id: int
    +statement: String
    +correct: boolean
    +question_id: int
}

class Quiz{
    +id: int
    +statement: String??
    +created: Datetime
    +user_id: int
}

class QuizQuestion{
    +id: int
    +quiz_id: int
    +quiestion_id: int
}

User "1" -- "m" Quiz
Question "1" -- "m" QuizQuestion
Quiz"1" -- "m" QuizQuestion
Question "1" -- "m" Alternative
Topic "1" -- "m" Question 

@enduml